# xmcd
#
# Track frame offsets: 
#        150
#        10339
#        21956
#        34831
#        44885
#        85010
#        95325
#        106005
#        119400
#        132130
#        169633
#        183127
#
# Disc length: 2638 seconds
#
# Revision: 1
# Processed by: cddbd v1.5.2PL0 Copyright (c) Steve Scherf et al.
# Submitted via: ExactAudioCopy v0.99pb5
#
DISCID=900a4c0c
DTITLE=Various Artist - Schlafe, mein Prinzchen, schlaf' ein
DYEAR=2006
DGENRE=Kinder
TTITLE0=Kinderchor Lana - Der Mond ist aufgegangen
TTITLE1=Die Weidenkätzchen - Ein Vogel wollte Hochzeit machen
TTITLE2=Die Weidenkätzchen - Summ, summ, summ, Bienchen summ herum
TTITLE3=Edgar Eule - Hier spricht Edgar Eule
TTITLE4=Edgar Eule - Der Kampf der Bettlakengespenster
TTITLE5=Kinderchor Lana - Frau Holle
TTITLE6=Die Weidenkätzchen - Bäumchen rüttel dich
TTITLE7=Die Weidenkätzchen - Komm lieber Mai
TTITLE8=Kinderchor Frangart - Schneewittchen
TTITLE9=Edgar Eule - Die kleine Mondfee
TTITLE10=Die Weidenkätzchen - Weißt du wie viel Sternlein stehen
TTITLE11=Die Weidenkätzchen - Schlafe, mein Prinzchen, schlaf' ein
EXTD=
EXTT0=
EXTT1=
EXTT2=
EXTT3=
EXTT4=
EXTT5=
EXTT6=
EXTT7=
EXTT8=
EXTT9=
EXTT10=
EXTT11=
PLAYORDER=
